<?xml version="1.0" encoding="utf-8"?>
<!-- Generator: Adobe Illustrator 15.1.0, SVG Export Plug-In . SVG Version: 6.00 Build 0)  -->
<!DOCTYPE svg PUBLIC "-//W3C//DTD SVG 1.1//EN" "http://www.w3.org/Graphics/SVG/1.1/DTD/svg11.dtd">
<svg version="1.1" id="Layer_1" xmlns="http://www.w3.org/2000/svg" xmlns:xlink="http://www.w3.org/1999/xlink" x="0px" y="0px"
	 width="593px" height="593px" viewBox="0 0 593 593" enable-background="new 0 0 593 593" xml:space="preserve">
<g>
	<g>
		
			<path fill="#F2F1F0" stroke="#F2F1F0" stroke-width="5" stroke-linecap="round" stroke-linejoin="round" stroke-miterlimit="10" d="
			M313.045,353.02c32.96,0,32.827,0,48.579-27.929c8.206-14.561,16.016-29.386,25.414-43.151c7.545-10.854,5.427-20.649,0-30.313
			c-10.986-19.59-23.032-38.519-34.019-58.108c-4.5-8.074-9.662-12.311-19.59-12.045c-12.311,0.265-61.683,0.265-73.992,0
			c-9.928-0.266-15.09,3.971-19.591,12.045c-10.986,19.59-22.899,38.519-34.018,58.108c-5.56,9.795-7.545,19.458,0,30.313
			c9.53,13.633,17.207,28.591,25.414,43.151c15.752,27.929,15.619,28.062,48.578,27.929c5.162,0,10.325,0,15.487,0h2.25
			C302.721,353.02,307.883,353.02,313.045,353.02z"/>
		<g>
			
				<path fill="#F2F1F0" stroke="#F2F1F0" stroke-width="5" stroke-linecap="round" stroke-linejoin="round" stroke-miterlimit="10" d="
				M179.885,240.641c11.648-22.104,23.826-43.945,36.137-65.653c3.441-6.222,3.838-11.384,0-17.869
				c-14.561-24.885-28.856-50.035-42.887-75.316c-3.706-6.751-6.883-7.413-13.369-3.839c-27.003,14.692-54.138,29.12-81.67,43.284
				c-9.928,5.029-14.428,12.31-13.236,23.164c3.573,33.753,7.147,67.374,11.251,101.127c0.265,2.383,4.633,5.824,7.147,5.957
				c17.208,0.529,67.375,0.794,74.919,1.588C168.767,253.878,174.988,249.775,179.885,240.641z"/>
			
				<path fill="#F2F1F0" stroke="#F2F1F0" stroke-width="5" stroke-linecap="round" stroke-linejoin="round" stroke-miterlimit="10" d="
				M242.627,142.69c3.706,6.751,8.604,8.34,15.619,8.207c6.354-0.132,70.153-0.132,76.507,0c7.016,0.133,11.913-1.456,15.619-8.207
				c14.031-25.414,28.459-50.431,43.02-75.448c3.309-5.56,3.177-9.001-2.912-12.178c-27.93-14.561-55.858-29.385-83.655-44.21
				c-3.574-1.985-6.883-2.912-10.324-2.912l0,0l0,0l0,0l0,0c-3.441,0-6.751,0.927-10.325,2.779
				c-27.797,14.825-55.726,29.65-83.655,44.211c-6.221,3.177-6.221,6.618-2.912,12.178
				C214.168,92.127,228.596,117.276,242.627,142.69z"/>
			
				<path fill="#F2F1F0" stroke="#F2F1F0" stroke-width="5" stroke-linecap="round" stroke-linejoin="round" stroke-miterlimit="10" d="
				M216.551,361.492c-12.311-23.164-25.149-46.063-38.254-68.698c-2.25-3.839-7.28-8.604-11.251-8.604
				c-26.605-0.794-53.344-0.397-80.876-0.397c15.619,64.859,44.21,121.645,82.332,177.106c17.34-30.18,33.621-58.374,49.372-86.833
				C219.463,370.889,218.404,364.933,216.551,361.492z"/>
			
				<path fill="#F2F1F0" stroke="#F2F1F0" stroke-width="5" stroke-linecap="round" stroke-linejoin="round" stroke-miterlimit="10" d="
				M514.904,121.248c-27.399-14.031-54.667-28.592-81.67-43.284c-6.618-3.574-9.662-2.912-13.369,3.839
				c-13.898,25.281-28.193,50.432-42.886,75.316c-3.839,6.485-3.442,11.647,0,17.869c12.31,21.841,24.487,43.549,36.136,65.653
				c4.765,9.134,10.986,13.236,21.443,12.178c7.677-0.794,57.711-1.059,74.919-1.588c2.515-0.133,6.883-3.574,7.147-5.957
				c4.104-33.621,7.678-67.374,11.251-101.128C529.199,133.425,524.698,126.277,514.904,121.248z"/>
			
				<path fill="#F2F1F0" stroke="#F2F1F0" stroke-width="5" stroke-linecap="round" stroke-linejoin="round" stroke-miterlimit="10" d="
				M425.953,284.19c-3.838,0.132-9,4.765-11.251,8.604c-13.236,22.635-25.943,45.534-38.254,68.698
				c-1.853,3.441-2.912,9.397-1.19,12.442c15.619,28.459,32.032,56.652,49.372,86.832c38.121-55.461,66.58-112.246,82.332-177.105
				C479.297,283.793,452.56,283.396,425.953,284.19z"/>
			
				<path fill="#F2F1F0" stroke="#F2F1F0" stroke-width="5" stroke-linecap="round" stroke-linejoin="round" stroke-miterlimit="10" d="
				M350.372,391.672c-3.309-5.824-7.412-7.942-13.898-7.81c-13.368,0.132-66.579,0.132-79.816,0c-6.485,0-10.589,1.985-13.898,7.81
				c-16.413,29.12-32.959,58.241-49.77,87.097c-3.971,6.751-2.912,11.251,1.985,16.811c26.209,30.18,54.8,57.977,86.567,82.464
				c6.089,4.633,10.59,7.016,15.09,7.016l0,0l0,0l0,0l0,0c4.501,0,9.001-2.25,15.09-7.016
				c31.768-24.355,60.358-52.152,86.567-82.464c4.897-5.691,5.956-10.192,1.985-16.811
				C383.199,449.913,366.654,420.792,350.372,391.672z"/>
		</g>
	</g>
</g>
</svg>
